# xmcd
#
# Track frame offsets: 
#        150
#        20626
#        43438
#        67331
#        90062
#        113333
#        131500
#        145969
#        170423
#        189401
#        211273
#
# Disc length: 2980 seconds
#
# Revision: 1
# Processed by: cddbd v1.5.2PL0 Copyright (c) Steve Scherf et al.
# Submitted via: ExactAudioCopy v1.0b1
#
DISCID=980ba20b
DTITLE=Olivier Ker Ourio - Magic Tree
DYEAR=2010
DGENRE=Jazz
TTITLE0=Eva
TTITLE1=Magic Tree
TTITLE2=Sunday
TTITLE3=Libertalia
TTITLE4=Jenn
TTITLE5=Chaloupe Mwin
TTITLE6=St Jacques
TTITLE7=Okokalypso
TTITLE8=Mirella
TTITLE9=So Long P
TTITLE10=Achille
EXTD=YEAR: 2009
EXTT0=
EXTT1=
EXTT2=
EXTT3=
EXTT4=
EXTT5=
EXTT6=
EXTT7=
EXTT8=
EXTT9=
EXTT10=
PLAYORDER=
